<svg xmlns="http://www.w3.org/2000/svg" width="579.226" height="56.609" viewBox="0 0 579.226 56.609">
  <path id="Path_10296" data-name="Path 10296" d="M.979-33.937A2.311,2.311,0,0,1,1.44-34.6q.346-.375.778-.778t.864-.778A3.9,3.9,0,0,1,3.86-36.7a3.063,3.063,0,0,1,.778.864,11.176,11.176,0,0,1,.778,1.757q.461,1.239,1.124,3.371t1.757,5.7q1.095,3.572,2.737,8.787t4,12.532a6.4,6.4,0,0,0,.835-1.844q.6-1.671,1.469-4.177T19.215-15.3Q20.224-18.38,21.2-21.52t1.873-5.992q.893-2.852,1.527-4.926a15.991,15.991,0,0,0,.259-1.584,9.273,9.273,0,0,1,.259-1.412,2.351,2.351,0,0,1,.6-1.066,2.035,2.035,0,0,1,1.469-.432q.807-.346,1.5.807A17.192,17.192,0,0,1,30.1-32.784q.72,2.189,1.527,5.1t1.815,6.079q1.008,3.169,2.247,6.309A32.707,32.707,0,0,0,38.6-9.564l8.124-33.187a1.464,1.464,0,0,1,.432-.749,1.077,1.077,0,0,1,.749-.288,1.382,1.382,0,0,1,.893.4,3.757,3.757,0,0,1,.864,1.325L41.6-9.564a10.586,10.586,0,0,1-.173,1.757,16.167,16.167,0,0,1-.461,1.959A8.841,8.841,0,0,1,40.3-4.206a1.563,1.563,0,0,1-.864.835,1.113,1.113,0,0,1-1.066-.4,6.336,6.336,0,0,1-1.21-2.161,104.655,104.655,0,0,1-5.762-11.9q-2.535-6.194-4.609-13.108L19.417-6.626a15.8,15.8,0,0,1-1.008,4.062,7.045,7.045,0,0,1-1.44,2.276,3.326,3.326,0,0,1-1.584.922,4.2,4.2,0,0,1-1.44.086,1.9,1.9,0,0,1-.951-.346q-.317-.259-.2-.375a17.706,17.706,0,0,1-2.276-4.292A54.234,54.234,0,0,1,8.787-9.766q-.778-2.967-1.527-6.223T5.675-22.442a54.586,54.586,0,0,0-1.988-6.136A30.407,30.407,0,0,0,.979-33.937Zm73.059,8.758a4.093,4.093,0,0,0-4.091.634A16.493,16.493,0,0,0,66.2-20.483a46.473,46.473,0,0,0-3.4,5.963q-1.613,3.342-3,6.338T57.3-3.054Q56.177-.922,55.255-.691a1.86,1.86,0,0,1-1.066-.259q-.375-.259-.375-1.3v-40.5a.575.575,0,0,1,.432-.634,2.57,2.57,0,0,1,.951-.058,3.352,3.352,0,0,1,.979.259,1.12,1.12,0,0,1,.576.432L57.5-10.313a12.381,12.381,0,0,0,1.181-2.91q.547-1.873,1.3-4.033a45.329,45.329,0,0,1,1.757-4.321,16.654,16.654,0,0,1,2.506-3.889A10.217,10.217,0,0,1,67.9-28.146a10.082,10.082,0,0,1,5.1-.663A4.231,4.231,0,0,1,76.17-27.57a4.661,4.661,0,0,1,1.268,3.255l.576,22.989a3.659,3.659,0,0,1-.086.663,1.3,1.3,0,0,1-.461.749,1.967,1.967,0,0,1-1.037.4,3.611,3.611,0,0,1-1.7-.317Zm8.527,12.733-.864.173a4.2,4.2,0,0,1-1.21.058,2.661,2.661,0,0,1-1.124-.346,1.043,1.043,0,0,1-.49-.979.8.8,0,0,1,.173-.576q.173-.173.576-.519a8.9,8.9,0,0,0,2.161-2.679,33.012,33.012,0,0,0,1.642-3.515q.749-1.873,1.584-3.745a18.389,18.389,0,0,1,1.93-3.371,8.6,8.6,0,0,1,2.708-2.42,7.524,7.524,0,0,1,3.976-.864,6.222,6.222,0,0,1,2.189.461,9.165,9.165,0,0,1,2.247,1.239,6.983,6.983,0,0,1,1.729,1.873,4.44,4.44,0,0,1,.691,2.42q.288.461-.547,1.325a15.792,15.792,0,0,1-2.276,1.873q-1.44,1.008-3.255,2.074T90.92-17.977q-1.671.922-2.938,1.613a11.307,11.307,0,0,0-1.671,1.037A5.952,5.952,0,0,0,85.85-14q-.173.749-.259,1.412t-.115,1.21q-.029.547-.029.835,0,1.095-.086,2.42a10.721,10.721,0,0,0,.115,2.506,3.627,3.627,0,0,0,.951,1.959,3.422,3.422,0,0,0,2.535.778,7.108,7.108,0,0,0,3.572-.951,15.685,15.685,0,0,0,3.111-2.333,22.888,22.888,0,0,0,2.622-3q1.181-1.613,2.132-3.025t1.7-2.333q.749-.922,1.268-.922a4.268,4.268,0,0,1,1.239.2.89.89,0,0,1,.663.951,5.163,5.163,0,0,1-.835,2.478,21.976,21.976,0,0,1-2.189,3.054,32.205,32.205,0,0,1-3.111,3.2,35.615,35.615,0,0,1-3.543,2.823A22.141,22.141,0,0,1,92.072-.72a7.608,7.608,0,0,1-3.054.778A5.463,5.463,0,0,1,85.1-1.21a6.95,6.95,0,0,1-1.873-3.169,15.368,15.368,0,0,1-.576-4.062Q82.623-10.6,82.565-12.445ZM93.167-28a3.255,3.255,0,0,0-2.074.951,12.678,12.678,0,0,0-2.045,2.3,15.312,15.312,0,0,0-1.556,2.766,6.233,6.233,0,0,0-.6,2.333,7.425,7.425,0,0,0,2.506-.663,22.494,22.494,0,0,0,3.255-1.642,18.519,18.519,0,0,0,2.823-2.074,2.986,2.986,0,0,0,1.21-2.074,1.092,1.092,0,0,0-.4-.864,3.586,3.586,0,0,0-.951-.576,5.84,5.84,0,0,0-1.124-.346A5.341,5.341,0,0,0,93.167-28Zm14.98.23v-.461a.836.836,0,0,1,.432-.807,2.111,2.111,0,0,1,1.008-.23,4.12,4.12,0,0,1,.864.086.952.952,0,0,1,.634.663q.173.864.346,2.391t.4,3.371q.23,1.844.49,3.889t.519,3.86q.259,1.815.547,3.255a10.312,10.312,0,0,0,.634,2.189,61.684,61.684,0,0,1,.346-9.593,17.887,17.887,0,0,1,1.988-6.626,7.911,7.911,0,0,1,4.033-3.572,12.535,12.535,0,0,1,6.424-.432q1.786,0,1.786,1.9,0,.749-.979,1.008a11.887,11.887,0,0,1-2.189.346q-1.21.086-2.362.2a2.942,2.942,0,0,0-1.671.576,6.245,6.245,0,0,0-2.91,3.572,25.885,25.885,0,0,0-1.181,5.7q-.346,3.284-.49,7.173a68.743,68.743,0,0,1-.778,7.98.952.952,0,0,1-.461.864,2.079,2.079,0,0,1-1.124.288,2.913,2.913,0,0,1-1.268-.288,2.178,2.178,0,0,1-.951-.864Zm25.063,15.326-.864.173a4.2,4.2,0,0,1-1.21.058,2.661,2.661,0,0,1-1.124-.346,1.043,1.043,0,0,1-.49-.979.8.8,0,0,1,.173-.576q.173-.173.576-.519a8.9,8.9,0,0,0,2.161-2.679,33.009,33.009,0,0,0,1.642-3.515q.749-1.873,1.584-3.745a18.389,18.389,0,0,1,1.93-3.371,8.6,8.6,0,0,1,2.708-2.42,7.524,7.524,0,0,1,3.976-.864,6.221,6.221,0,0,1,2.189.461,9.165,9.165,0,0,1,2.247,1.239,6.983,6.983,0,0,1,1.729,1.873,4.44,4.44,0,0,1,.691,2.42q.288.461-.547,1.325a15.792,15.792,0,0,1-2.276,1.873q-1.44,1.008-3.255,2.074t-3.486,1.988q-1.671.922-2.938,1.613a11.307,11.307,0,0,0-1.671,1.037A5.952,5.952,0,0,0,136.5-14q-.173.749-.259,1.412t-.115,1.21q-.029.547-.029.835,0,1.095-.086,2.42a10.721,10.721,0,0,0,.115,2.506,3.627,3.627,0,0,0,.951,1.959,3.422,3.422,0,0,0,2.535.778,7.108,7.108,0,0,0,3.572-.951,15.685,15.685,0,0,0,3.111-2.333,22.888,22.888,0,0,0,2.622-3q1.181-1.613,2.132-3.025t1.7-2.333q.749-.922,1.268-.922a4.268,4.268,0,0,1,1.239.2.89.89,0,0,1,.663.951,5.163,5.163,0,0,1-.835,2.478,21.976,21.976,0,0,1-2.189,3.054,32.2,32.2,0,0,1-3.111,3.2,35.617,35.617,0,0,1-3.543,2.823A22.141,22.141,0,0,1,142.718-.72a7.608,7.608,0,0,1-3.054.778,5.463,5.463,0,0,1-3.918-1.268,6.95,6.95,0,0,1-1.873-3.169,15.368,15.368,0,0,1-.576-4.062Q133.269-10.6,133.211-12.445ZM143.813-28a3.255,3.255,0,0,0-2.074.951,12.678,12.678,0,0,0-2.045,2.3,15.312,15.312,0,0,0-1.556,2.766,6.233,6.233,0,0,0-.6,2.333,7.425,7.425,0,0,0,2.506-.663,22.494,22.494,0,0,0,3.255-1.642,18.519,18.519,0,0,0,2.823-2.074,2.986,2.986,0,0,0,1.21-2.074,1.092,1.092,0,0,0-.4-.864,3.586,3.586,0,0,0-.951-.576,5.84,5.84,0,0,0-1.124-.346A5.341,5.341,0,0,0,143.813-28Zm54.16,17.458Q197.4-9.219,196.5-7.49a22.5,22.5,0,0,1-2.074,3.284,12.339,12.339,0,0,1-2.737,2.65,5.871,5.871,0,0,1-3.457,1.095,3.656,3.656,0,0,1-1.354-.2,2.435,2.435,0,0,1-.864-.6,4.906,4.906,0,0,1-.691-.979q-.317-.576-.778-1.268-.173-2.823-.2-6.079a56.84,56.84,0,0,1,.317-6.511,35.441,35.441,0,0,1,1.181-6.136,14.906,14.906,0,0,1,2.362-4.9,8.448,8.448,0,0,1,3.832-2.881,9.706,9.706,0,0,1,5.589-.115,30.4,30.4,0,0,0,.058-4.321q-.115-2.708-.346-5.7t-.461-5.791q-.23-2.794-.288-4.581a.833.833,0,0,1,.49-.778,2.864,2.864,0,0,1,1.066-.317,5.491,5.491,0,0,1,1.124,0,1.825,1.825,0,0,1,.72.173q-.115,7.087-.058,13.915t.144,13.6q.086,6.77.2,13.454t.115,13.367a11.4,11.4,0,0,1-.086,1.354q-.086.72-1.008.72a1.362,1.362,0,0,1-.691-.2.985.985,0,0,1-.461-.6ZM195.5-27.253a4.212,4.212,0,0,0-3.313,1.412,13.636,13.636,0,0,0-2.65,3.947,28,28,0,0,0-1.815,5.33,31.515,31.515,0,0,0-.835,5.589,16.829,16.829,0,0,0,.346,4.753A4.191,4.191,0,0,0,188.984-3.4a3.432,3.432,0,0,0,2.362-1.008,11.25,11.25,0,0,0,2.017-2.564,20.157,20.157,0,0,0,1.613-3.486q.691-1.93,1.181-3.716t.749-3.255a13.964,13.964,0,0,0,.259-2.218q0-.576.058-1.844a18.627,18.627,0,0,0-.058-2.535,8.423,8.423,0,0,0-.49-2.247Q196.3-27.253,195.5-27.253Zm8.527-.519v-.461a.836.836,0,0,1,.432-.807,2.112,2.112,0,0,1,1.008-.23,4.12,4.12,0,0,1,.864.086.952.952,0,0,1,.634.663q.173.864.346,2.391t.4,3.371q.23,1.844.49,3.889t.519,3.86q.259,1.815.547,3.255a10.312,10.312,0,0,0,.634,2.189,61.684,61.684,0,0,1,.346-9.593,17.887,17.887,0,0,1,1.988-6.626,7.911,7.911,0,0,1,4.033-3.572,12.535,12.535,0,0,1,6.424-.432q1.786,0,1.786,1.9,0,.749-.979,1.008a11.887,11.887,0,0,1-2.189.346q-1.21.086-2.362.2a2.942,2.942,0,0,0-1.671.576,6.245,6.245,0,0,0-2.91,3.572,25.886,25.886,0,0,0-1.181,5.7q-.346,3.284-.49,7.173a68.739,68.739,0,0,1-.778,7.98.952.952,0,0,1-.461.864,2.079,2.079,0,0,1-1.124.288,2.913,2.913,0,0,1-1.268-.288,2.178,2.178,0,0,1-.951-.864Zm25.063,15.326-.864.173a4.2,4.2,0,0,1-1.21.058,2.661,2.661,0,0,1-1.124-.346,1.043,1.043,0,0,1-.49-.979.8.8,0,0,1,.173-.576q.173-.173.576-.519a8.9,8.9,0,0,0,2.161-2.679,33.009,33.009,0,0,0,1.642-3.515q.749-1.873,1.584-3.745a18.389,18.389,0,0,1,1.93-3.371,8.6,8.6,0,0,1,2.708-2.42,7.524,7.524,0,0,1,3.976-.864,6.221,6.221,0,0,1,2.189.461,9.165,9.165,0,0,1,2.247,1.239,6.983,6.983,0,0,1,1.729,1.873,4.44,4.44,0,0,1,.691,2.42q.288.461-.547,1.325a15.792,15.792,0,0,1-2.276,1.873q-1.44,1.008-3.255,2.074t-3.486,1.988q-1.671.922-2.938,1.613a11.307,11.307,0,0,0-1.671,1.037A5.952,5.952,0,0,0,232.37-14q-.173.749-.259,1.412T232-11.379q-.029.547-.029.835,0,1.095-.086,2.42A10.721,10.721,0,0,0,232-5.618a3.627,3.627,0,0,0,.951,1.959,3.422,3.422,0,0,0,2.535.778,7.108,7.108,0,0,0,3.572-.951,15.685,15.685,0,0,0,3.111-2.333,22.888,22.888,0,0,0,2.622-3q1.181-1.613,2.132-3.025t1.7-2.333q.749-.922,1.268-.922a4.268,4.268,0,0,1,1.239.2.89.89,0,0,1,.663.951,5.163,5.163,0,0,1-.835,2.478,21.976,21.976,0,0,1-2.189,3.054,32.2,32.2,0,0,1-3.111,3.2,35.617,35.617,0,0,1-3.543,2.823A22.141,22.141,0,0,1,238.593-.72a7.608,7.608,0,0,1-3.054.778,5.463,5.463,0,0,1-3.918-1.268,6.95,6.95,0,0,1-1.873-3.169,15.368,15.368,0,0,1-.576-4.062Q229.144-10.6,229.086-12.445ZM239.688-28a3.255,3.255,0,0,0-2.074.951,12.678,12.678,0,0,0-2.045,2.3,15.312,15.312,0,0,0-1.556,2.766,6.233,6.233,0,0,0-.6,2.333,7.425,7.425,0,0,0,2.506-.663,22.494,22.494,0,0,0,3.255-1.642,18.519,18.519,0,0,0,2.823-2.074A2.986,2.986,0,0,0,243.2-26.1a1.092,1.092,0,0,0-.4-.864,3.586,3.586,0,0,0-.951-.576,5.84,5.84,0,0,0-1.124-.346A5.341,5.341,0,0,0,239.688-28ZM271.031-1.5q-.288-1.5-.49-3.6t-.432-4.264q-.23-2.161-.547-4.062a10.462,10.462,0,0,0-.951-3.111,90.432,90.432,0,0,1-5.186,9.42,24.194,24.194,0,0,1-3.947,4.9,4.5,4.5,0,0,1-2.852,1.412,2.464,2.464,0,0,1-1.9-1.037A6.116,6.116,0,0,1,253.66-4.35a24.577,24.577,0,0,1-.432-2.852,15.885,15.885,0,0,1,.576-3.572q.576-2.3,1.556-5.042a58.3,58.3,0,0,1,2.333-5.56A40.319,40.319,0,0,1,260.6-26.5a20.412,20.412,0,0,1,3.227-3.8,5.044,5.044,0,0,1,3.342-1.5,3.605,3.605,0,0,1,3.659,1.066q1.181,1.469.432,4.926a57.111,57.111,0,0,0,.317,6.511q.317,2.708.691,5.186t.691,5.186a57.111,57.111,0,0,1,.317,6.511,4.225,4.225,0,0,1-.144,1.181q-.144.49-1.412.49-.173,0-.432-.288A.81.81,0,0,1,271.031-1.5ZM267.92-27.253q-.634-.922-1.729-.173a9.763,9.763,0,0,0-2.3,2.478,38.15,38.15,0,0,0-2.478,4.148q-1.268,2.42-2.362,4.9t-1.9,4.7a26.3,26.3,0,0,0-1.095,3.659q0,2.074.634,2.333t1.556-.663a18.964,18.964,0,0,0,2.1-2.65q1.181-1.729,2.3-3.687t2.132-3.8q1.008-1.844,1.584-3a17.952,17.952,0,0,0,.807-2.247q.288-1.037.49-1.988a10.815,10.815,0,0,0,.23-1.93Q267.92-26.158,267.92-27.253ZM278.579-.173q-.173-1.613-.288-4.379t-.23-6.021q-.115-3.255-.259-6.77t-.317-6.684q-.173-3.169-.432-5.762t-.547-4.148q0-1.152.519-1.354a3.7,3.7,0,0,1,1.325-.2h.519a2.022,2.022,0,0,1,.576.058,19.506,19.506,0,0,1,.663,4.465q.144,2.737.23,5.963t.173,6.684q.086,3.457.375,6.568.807-4.552,1.354-7.548t1.037-4.811a16.493,16.493,0,0,1,.922-2.708A2.5,2.5,0,0,1,285.176-28a2.333,2.333,0,0,1,1.21-.259q.663.029,1.584.029a2.1,2.1,0,0,1,1.7.807,5.834,5.834,0,0,1,1.037,2.074,18.461,18.461,0,0,1,.576,2.766q.2,1.5.375,2.91t.375,2.564A3.02,3.02,0,0,0,292.7-15.5q1.44-4.264,2.478-6.972t1.786-4.292a11.292,11.292,0,0,1,1.325-2.276,2.486,2.486,0,0,1,1.037-.835,1.392,1.392,0,0,1,.835-.029,2.63,2.63,0,0,0,.778.115,2.546,2.546,0,0,1,2.362,1.613,26.243,26.243,0,0,1,1.268,4.926,37.516,37.516,0,0,1,.4,4.494q.058,2.161.029,4.12t.115,3.8a19.415,19.415,0,0,0,.634,3.63,11.388,11.388,0,0,0,1.7,3.515,3.267,3.267,0,0,1-.922,1.239,2.21,2.21,0,0,1-1.268.317,1.707,1.707,0,0,1-1.21-.49,4.057,4.057,0,0,1-.864-1.21,8.491,8.491,0,0,1-.547-1.469q-.2-.749-.375-1.325-.23-8.239-.72-12.647t-1.469-4.638q-.979-.23-2.506,3.832t-3.774,12.7a.711.711,0,0,1-.519.346,4.376,4.376,0,0,1-.72.058q-.374,0-.749-.029a2.979,2.979,0,0,0-.72.029q-1.44-8.47-2.391-12.186t-1.93-2.852q-.979.864-2.189,6.194T281.46-.864Zm36.414-.691a7.32,7.32,0,0,0,1.239-.691q1.239-.749,2.938-1.988t3.486-2.708a24.659,24.659,0,0,0,2.938-2.794,4.417,4.417,0,0,0,1.239-2.276q.086-.951-1.584-1.239a9.427,9.427,0,0,0-3.486.058,19.235,19.235,0,0,0-2.564.807l-2.161.864a4.7,4.7,0,0,1-2.218.288,3.725,3.725,0,0,1-3.486-1.584,8.317,8.317,0,0,1-.951-4.292,11.493,11.493,0,0,1,1.21-5.157,14.658,14.658,0,0,1,3.111-4.235,14.989,14.989,0,0,1,4.379-2.852,12.713,12.713,0,0,1,5.07-1.066,8.038,8.038,0,0,1,1.786.173q.749.173.749,1.325A2.187,2.187,0,0,1,326-26.706a2.111,2.111,0,0,1-1.556.72,1.234,1.234,0,0,1-.288-.086,1.863,1.863,0,0,1-.461-.259,1.863,1.863,0,0,0-.461-.259,1.234,1.234,0,0,0-.288-.086,4.38,4.38,0,0,0-3.572.519,11.116,11.116,0,0,0-3.083,2.794,15.548,15.548,0,0,0-2.161,3.8,10.127,10.127,0,0,0-.807,3.659,1.743,1.743,0,0,0,.259,1.008,1.5,1.5,0,0,0,.691.547,3.058,3.058,0,0,0,.979.2q.547.029,1.124.029a8.278,8.278,0,0,0,2.333-.346,23.341,23.341,0,0,0,2.3-.807,23.342,23.342,0,0,1,2.3-.807,8.672,8.672,0,0,1,2.449-.346,3.073,3.073,0,0,1,1.268.317,4.119,4.119,0,0,1,1.268.922,5.988,5.988,0,0,1,.979,1.383,4.222,4.222,0,0,1,.461,1.7,2.784,2.784,0,0,1-.2,2.132A13.8,13.8,0,0,1,327.9-7.145a24.68,24.68,0,0,1-2.65,3.025,40.246,40.246,0,0,1-3.111,2.766A18.987,18.987,0,0,1,319.084.663a5.129,5.129,0,0,1-2.535.72q-1.152,0-1.354-.691A5.553,5.553,0,0,1,314.993-.864Zm43.616-12.388q.173-2.074.346-4.523t.547-4.869a40.637,40.637,0,0,1,.979-4.609,15.873,15.873,0,0,1,1.613-3.889A8.31,8.31,0,0,1,364.6-33.85a6.045,6.045,0,0,1,3.63-.951,2.487,2.487,0,0,1,2.218,1.21,8.077,8.077,0,0,1,1.095,2.938,21.509,21.509,0,0,1,.346,3.543q.029,1.815.029,2.967a2.278,2.278,0,0,1-1.9-1.008,7.573,7.573,0,0,1-1.152-2.333,16.619,16.619,0,0,1-.576-2.593l-.173-1.671a1.214,1.214,0,0,1-.2-.029,1.214,1.214,0,0,0-.2-.029A2.325,2.325,0,0,0,365.9-30.71a12.928,12.928,0,0,0-1.556,2.794,25.256,25.256,0,0,0-1.239,3.8q-.519,2.1-.864,4.12t-.547,3.716a23.913,23.913,0,0,0-.2,2.622,23.387,23.387,0,0,0,0,3.284,11.748,11.748,0,0,0,.691,3.342,7.99,7.99,0,0,0,1.613,2.679,5.285,5.285,0,0,0,2.766,1.527,8.763,8.763,0,0,0,3.457-.576,5.849,5.849,0,0,0,2.161-1.556,7.417,7.417,0,0,0,1.3-2.189q.461-1.21.893-2.506t.893-2.564a8.461,8.461,0,0,1,1.325-2.362,1.33,1.33,0,0,1,1.008.029,1.013,1.013,0,0,1,.432.547,2.554,2.554,0,0,1,.115.807v.634a13.71,13.71,0,0,1-.807,4.667,12.2,12.2,0,0,1-2.362,4,12,12,0,0,1-3.716,2.823A10.991,10.991,0,0,1,366.33,0,5.305,5.305,0,0,1,362.5-1.469a10.068,10.068,0,0,1-2.362-3.543,19.4,19.4,0,0,1-1.181-4.35A26.51,26.51,0,0,1,358.609-13.252ZM381.6-7.894a34.263,34.263,0,0,1-.4-5.157,42.006,42.006,0,0,1,.317-5.1q.317-2.593.922-5.387t1.412-6.021a2.171,2.171,0,0,1,.346-1.181,3.015,3.015,0,0,1,.922-.922,5.938,5.938,0,0,1,1.21-.6,3.539,3.539,0,0,1,1.21-.23,3.664,3.664,0,0,1,2.3.807,9.591,9.591,0,0,1,1.873,1.959,14.887,14.887,0,0,1,1.44,2.449q.6,1.3,1.008,2.218a31.921,31.921,0,0,1,.663,4.581,36.3,36.3,0,0,1,.029,5.214,29.757,29.757,0,0,1-.807,5.214,19.842,19.842,0,0,1-1.786,4.7,11.45,11.45,0,0,1-2.967,3.572A8.7,8.7,0,0,1,385,0a2.4,2.4,0,0,1-2.017-.893,5.762,5.762,0,0,1-1.008-2.189,12.116,12.116,0,0,1-.346-2.622Q381.6-7.029,381.6-7.894Zm2.938-.173q0,.576.029,1.095a8.514,8.514,0,0,0,.115,1.008q.086.49.23,1.037t.375,1.239h.346a3.323,3.323,0,0,0,2.362-.922A7.791,7.791,0,0,0,389.665-7a18.265,18.265,0,0,0,1.152-3.284,35.662,35.662,0,0,0,.72-3.572q.259-1.757.346-3.284t.086-2.449v-1.152q0-.749-.058-1.7t-.2-1.959a9.99,9.99,0,0,0-.432-1.844,3.953,3.953,0,0,0-.749-1.354,1.541,1.541,0,0,0-1.21-.519,2.451,2.451,0,0,0-2.161.173,3.972,3.972,0,0,0-1.44,1.93,14.581,14.581,0,0,0-.835,3.313,35.845,35.845,0,0,0-.346,4.321q-.058,2.362-.029,5.013T384.537-8.066ZM399.69-.173q-.173-1.613-.288-4.379t-.23-6.021q-.115-3.255-.259-6.77t-.317-6.684q-.173-3.169-.432-5.762t-.547-4.148q0-1.152.519-1.354a3.7,3.7,0,0,1,1.325-.2h.519a2.022,2.022,0,0,1,.576.058,19.506,19.506,0,0,1,.663,4.465q.144,2.737.23,5.963t.173,6.684q.086,3.457.375,6.568.807-4.552,1.354-7.548t1.037-4.811a16.493,16.493,0,0,1,.922-2.708A2.5,2.5,0,0,1,406.288-28a2.333,2.333,0,0,1,1.21-.259q.663.029,1.584.029a2.1,2.1,0,0,1,1.7.807,5.834,5.834,0,0,1,1.037,2.074,18.461,18.461,0,0,1,.576,2.766q.2,1.5.375,2.91t.375,2.564a3.02,3.02,0,0,0,.663,1.613q1.44-4.264,2.478-6.972t1.786-4.292a11.292,11.292,0,0,1,1.325-2.276,2.486,2.486,0,0,1,1.037-.835,1.392,1.392,0,0,1,.835-.029,2.63,2.63,0,0,0,.778.115,2.546,2.546,0,0,1,2.362,1.613,26.243,26.243,0,0,1,1.268,4.926,37.516,37.516,0,0,1,.4,4.494q.058,2.161.029,4.12t.115,3.8a19.415,19.415,0,0,0,.634,3.63,11.388,11.388,0,0,0,1.7,3.515,3.267,3.267,0,0,1-.922,1.239,2.21,2.21,0,0,1-1.268.317,1.707,1.707,0,0,1-1.21-.49,4.057,4.057,0,0,1-.864-1.21,8.491,8.491,0,0,1-.547-1.469q-.2-.749-.375-1.325-.23-8.239-.72-12.647t-1.469-4.638q-.979-.23-2.506,3.832T414.9-7.375a.711.711,0,0,1-.519.346,4.376,4.376,0,0,1-.72.058q-.374,0-.749-.029a2.979,2.979,0,0,0-.72.029q-1.44-8.47-2.391-12.186t-1.93-2.852q-.979.864-2.189,6.194T402.571-.864Zm33.533-12.272-.864.173a4.2,4.2,0,0,1-1.21.058,2.661,2.661,0,0,1-1.124-.346,1.043,1.043,0,0,1-.49-.979.8.8,0,0,1,.173-.576q.173-.173.576-.519a8.9,8.9,0,0,0,2.161-2.679,33.015,33.015,0,0,0,1.642-3.515q.749-1.873,1.584-3.745a18.389,18.389,0,0,1,1.93-3.371,8.6,8.6,0,0,1,2.708-2.42,7.524,7.524,0,0,1,3.976-.864,6.222,6.222,0,0,1,2.189.461,9.165,9.165,0,0,1,2.247,1.239,6.983,6.983,0,0,1,1.729,1.873,4.44,4.44,0,0,1,.691,2.42q.288.461-.547,1.325a15.792,15.792,0,0,1-2.276,1.873q-1.44,1.008-3.255,2.074t-3.486,1.988q-1.671.922-2.938,1.613a11.307,11.307,0,0,0-1.671,1.037A5.952,5.952,0,0,0,436.508-14q-.173.749-.259,1.412t-.115,1.21q-.029.547-.029.835,0,1.095-.086,2.42a10.722,10.722,0,0,0,.115,2.506,3.627,3.627,0,0,0,.951,1.959,3.422,3.422,0,0,0,2.535.778,7.108,7.108,0,0,0,3.572-.951A15.686,15.686,0,0,0,446.3-6.165a22.888,22.888,0,0,0,2.622-3q1.181-1.613,2.132-3.025t1.7-2.333q.749-.922,1.268-.922a4.268,4.268,0,0,1,1.239.2.89.89,0,0,1,.663.951,5.163,5.163,0,0,1-.835,2.478A21.976,21.976,0,0,1,452.9-8.758a32.207,32.207,0,0,1-3.111,3.2,35.614,35.614,0,0,1-3.543,2.823A22.142,22.142,0,0,1,442.73-.72a7.608,7.608,0,0,1-3.054.778,5.463,5.463,0,0,1-3.918-1.268,6.95,6.95,0,0,1-1.873-3.169,15.368,15.368,0,0,1-.576-4.062Q433.281-10.6,433.224-12.445ZM443.825-28a3.255,3.255,0,0,0-2.074.951,12.678,12.678,0,0,0-2.045,2.3,15.312,15.312,0,0,0-1.556,2.766,6.233,6.233,0,0,0-.6,2.333,7.425,7.425,0,0,0,2.506-.663,22.5,22.5,0,0,0,3.255-1.642,18.519,18.519,0,0,0,2.823-2.074,2.986,2.986,0,0,0,1.21-2.074,1.092,1.092,0,0,0-.4-.864,3.587,3.587,0,0,0-.951-.576,5.839,5.839,0,0,0-1.124-.346A5.341,5.341,0,0,0,443.825-28Zm43.1,3.4a11.093,11.093,0,0,0-1.066.6q-.49.317-.951.576a3.723,3.723,0,0,1-.922.375,2.108,2.108,0,0,1-.979,0,.67.67,0,0,1-.576-.432,4.52,4.52,0,0,1-.375-.979,7.3,7.3,0,0,1-.2-1.095,2.97,2.97,0,0,1,0-.835l5.531-3.169.346-14.75q.115-.749.922-.6t1.671.375a1.371,1.371,0,0,1,.375.086,3.141,3.141,0,0,1,.375.144q-.115,1.556-.259,3.371t-.259,3.63q-.115,1.815-.144,3.543a22.272,22.272,0,0,0,.144,3.111l8.643-2.42q.23-.058.375.317t.288.893a6.589,6.589,0,0,1,.2,1.037l.058.519-9.795,4.148q0,.519.086,2.478t.2,4.638q.115,2.679.23,5.762t.23,5.733q.115,2.65.173,4.638T491.3-.4q-.115,1.729-1.008,1.729a3.117,3.117,0,0,1-1.93-.864Zm14.289-3.169v-.461a.836.836,0,0,1,.432-.807,2.111,2.111,0,0,1,1.008-.23,4.121,4.121,0,0,1,.864.086.952.952,0,0,1,.634.663q.173.864.346,2.391t.4,3.371q.23,1.844.49,3.889t.519,3.86q.259,1.815.547,3.255a10.311,10.311,0,0,0,.634,2.189,61.684,61.684,0,0,1,.346-9.593,17.887,17.887,0,0,1,1.988-6.626,7.911,7.911,0,0,1,4.033-3.572,12.535,12.535,0,0,1,6.424-.432q1.786,0,1.786,1.9,0,.749-.979,1.008a11.888,11.888,0,0,1-2.189.346q-1.21.086-2.362.2a2.942,2.942,0,0,0-1.671.576,6.244,6.244,0,0,0-2.91,3.572,25.885,25.885,0,0,0-1.181,5.7q-.346,3.284-.49,7.173a68.746,68.746,0,0,1-.778,7.98.952.952,0,0,1-.461.864,2.079,2.079,0,0,1-1.124.288,2.913,2.913,0,0,1-1.268-.288,2.178,2.178,0,0,1-.951-.864ZM539.239-6.684a7.353,7.353,0,0,1-1.124,1.873,21.14,21.14,0,0,1-2.1,2.362,19.131,19.131,0,0,1-2.506,2.074,4.2,4.2,0,0,1-2.276.893,3.541,3.541,0,0,1-3.025-1.729,13.134,13.134,0,0,1-1.815-4.437,38.11,38.11,0,0,1-.864-6.021q-.23-3.313-.288-6.482t-.058-5.762a32.811,32.811,0,0,0-.173-3.918,1.058,1.058,0,0,1,.6-.691,3.056,3.056,0,0,1,.893-.115,2.834,2.834,0,0,1,.835.115,1.228,1.228,0,0,1,.663.691q0,.634.029,2.132t.144,3.371q.115,1.873.23,3.918t.2,3.889q.086,1.844.173,3.313t.144,2.161q.058.4.144,1.325a18.809,18.809,0,0,0,.288,1.93,10.724,10.724,0,0,0,.519,1.815q.317.807.835.864a2.759,2.759,0,0,0,1.757-.749,11.369,11.369,0,0,0,1.757-1.9A20.449,20.449,0,0,0,535.84-8.3q.749-1.383,1.354-2.679a18.16,18.16,0,0,0,.922-2.333,10.247,10.247,0,0,0,.375-1.5q.115-.979.23-2.794t.173-3.889q.058-2.074.086-3.918t.029-2.823l3.169.173q.058,4.667-.058,8.441t-.058,7.087a49.7,49.7,0,0,0,.519,6.424A33.346,33.346,0,0,0,544.252.346a4.171,4.171,0,0,1-.691.49,1.762,1.762,0,0,1-.749.317A1.962,1.962,0,0,1,540.881.2a6.426,6.426,0,0,1-.634-2.247q-.144-1.3-.23-2.593A3.232,3.232,0,0,0,539.239-6.684Zm9.91-5.762-.864.173a4.2,4.2,0,0,1-1.21.058,2.661,2.661,0,0,1-1.124-.346,1.044,1.044,0,0,1-.49-.979.8.8,0,0,1,.173-.576q.173-.173.576-.519a8.9,8.9,0,0,0,2.161-2.679,33,33,0,0,0,1.642-3.515q.749-1.873,1.584-3.745a18.389,18.389,0,0,1,1.93-3.371,8.6,8.6,0,0,1,2.708-2.42,7.524,7.524,0,0,1,3.976-.864,6.221,6.221,0,0,1,2.189.461,9.165,9.165,0,0,1,2.247,1.239,6.983,6.983,0,0,1,1.729,1.873,4.44,4.44,0,0,1,.691,2.42q.288.461-.547,1.325a15.792,15.792,0,0,1-2.276,1.873q-1.44,1.008-3.255,2.074T557.5-17.977q-1.671.922-2.938,1.613a11.307,11.307,0,0,0-1.671,1.037A5.951,5.951,0,0,0,552.434-14q-.173.749-.259,1.412t-.115,1.21q-.029.547-.029.835,0,1.095-.086,2.42a10.72,10.72,0,0,0,.115,2.506,3.627,3.627,0,0,0,.951,1.959,3.422,3.422,0,0,0,2.535.778,7.109,7.109,0,0,0,3.572-.951,15.684,15.684,0,0,0,3.111-2.333,22.888,22.888,0,0,0,2.622-3q1.181-1.613,2.132-3.025t1.7-2.333q.749-.922,1.268-.922a4.268,4.268,0,0,1,1.239.2.89.89,0,0,1,.663.951,5.163,5.163,0,0,1-.835,2.478,21.976,21.976,0,0,1-2.189,3.054,32.2,32.2,0,0,1-3.111,3.2,35.621,35.621,0,0,1-3.543,2.823A22.14,22.14,0,0,1,558.656-.72,7.608,7.608,0,0,1,555.6.058a5.463,5.463,0,0,1-3.918-1.268,6.95,6.95,0,0,1-1.873-3.169,15.368,15.368,0,0,1-.576-4.062Q549.207-10.6,549.149-12.445ZM559.751-28a3.255,3.255,0,0,0-2.074.951,12.679,12.679,0,0,0-2.045,2.3,15.312,15.312,0,0,0-1.556,2.766,6.233,6.233,0,0,0-.6,2.333,7.425,7.425,0,0,0,2.506-.663,22.493,22.493,0,0,0,3.255-1.642,18.52,18.52,0,0,0,2.823-2.074,2.986,2.986,0,0,0,1.21-2.074,1.092,1.092,0,0,0-.4-.864,3.586,3.586,0,0,0-.951-.576,5.841,5.841,0,0,0-1.124-.346A5.341,5.341,0,0,0,559.751-28Zm14.462-.173q0-5.3.23-10.515t.576-10.746a1.181,1.181,0,0,1,.4-.6,1.191,1.191,0,0,1,.634-.144.933.933,0,0,1,.807.317,1.878,1.878,0,0,1,.317.72,3.329,3.329,0,0,1,.058.893q-.029.49-.029.835v17.631a14.782,14.782,0,0,0,.173,2.189l.346,2.3a19.6,19.6,0,0,1,.317,2.161,4.261,4.261,0,0,1-.144,1.7,1.839,1.839,0,0,1-.663,1.095,1.8,1.8,0,0,1-1.181.461,1.451,1.451,0,0,1-1.44-1.037,8.062,8.062,0,0,1-.49-2.42,22.147,22.147,0,0,1,0-2.766Q574.213-27.483,574.213-28.175Zm3.63,26.792V-2.3a3.386,3.386,0,0,1,.058-.6,1.278,1.278,0,0,1,.23-.547.607.607,0,0,1,.519-.23q1.152,0,1.354.547a3.751,3.751,0,0,1,.2,1.3A3.7,3.7,0,0,1,580-.519Q579.8,0,578.649,0a.607.607,0,0,1-.519-.23,1.278,1.278,0,0,1-.23-.547A3.386,3.386,0,0,1,577.843-1.383Z" transform="translate(-0.979 51.654)" fill="#fff"/>
</svg>
