<svg xmlns="http://www.w3.org/2000/svg" width="647.448" height="689.108" viewBox="0 0 647.448 689.108">
  <g id="Group_8355" data-name="Group 8355" transform="translate(-1410.177 -592.56)">
    <g id="Group_8205" data-name="Group 8205" transform="translate(2210.595 1541.838) rotate(-162)">
      <g id="Group_8068" data-name="Group 8068" transform="translate(428.28 14.203)">
        <g id="Group_8067" data-name="Group 8067" transform="translate(0 0)">
          <g id="Rectangle" transform="translate(0 325.68) rotate(-25)" fill="none" stroke="#ad47bf" stroke-linecap="square" stroke-linejoin="round" stroke-miterlimit="10" stroke-width="3">
            <rect width="7.203" height="7.203" stroke="none"/>
            <rect x="-1.5" y="-1.5" width="10.203" height="10.203" fill="none"/>
          </g>
          <g id="Oval" transform="matrix(0.996, -0.087, 0.087, 0.996, 10.182, 120.674)" fill="none" stroke="#e6606c" stroke-linejoin="round" stroke-miterlimit="10" stroke-width="3">
            <circle cx="25.61" cy="25.61" r="25.61" stroke="none"/>
            <circle cx="25.61" cy="25.61" r="27.11" fill="none"/>
          </g>
          <g id="Oval-2" data-name="Oval" transform="matrix(0.996, -0.087, 0.087, 0.996, 66.386, 469.241)" fill="none" stroke="#e6606c" stroke-linejoin="round" stroke-miterlimit="10" stroke-width="3">
            <circle cx="5.202" cy="5.202" r="5.202" stroke="none"/>
            <circle cx="5.202" cy="5.202" r="6.702" fill="none"/>
          </g>
          <path id="Combined_Shape" data-name="Combined Shape" d="M19.208,19.208h0v0h0v0Z" transform="translate(378.628 15.625) rotate(-24)" fill="none" stroke="#ad47bf" stroke-linecap="square" stroke-miterlimit="10" stroke-width="4"/>
          <g id="Triangle" transform="matrix(0.978, 0.208, -0.208, 0.978, 437.683, 205.232)" fill="none" stroke-linejoin="round" stroke-miterlimit="10">
            <path d="M19.7,0,39.4,31.041H0Z" stroke="none"/>
            <path d="M 19.69893264770508 5.7220458984375e-06 L -3.814697265625e-06 31.04072952270508 L 39.39786911010742 31.04072952270508 L 19.69893264770508 5.7220458984375e-06 M 19.69893264770508 -2.999994277954102 C 20.7259578704834 -2.999994277954102 21.68160820007324 -2.474618911743164 22.23192024230957 -1.60746955871582 L 41.93085861206055 29.43325424194336 C 42.51719665527344 30.35717964172363 42.55395889282227 31.52708053588867 42.02678298950195 32.48599243164062 C 41.49961853027344 33.44491577148438 40.49214553833008 34.04072952270508 39.39786911010742 34.04072952270508 L -3.814697265625e-06 34.04072952270508 C -1.094280242919922 34.04072952270508 -2.101753234863281 33.44491577148438 -2.628917694091797 32.48599243164062 C -3.156093597412109 31.52708053588867 -3.119331359863281 30.35717964172363 -2.532993316650391 29.43325424194336 L 17.16594505310059 -1.60746955871582 C 17.71625709533691 -2.474618911743164 18.67190742492676 -2.999994277954102 19.69893264770508 -2.999994277954102 Z" stroke="none" fill="#6357f6"/>
          </g>
          <g id="Oval-3" data-name="Oval" transform="matrix(0.996, -0.087, 0.087, 0.996, 419.498, 354.797)" fill="none" stroke="#e6606c" stroke-linejoin="round" stroke-miterlimit="10" stroke-width="3">
            <circle cx="5.202" cy="5.202" r="5.202" stroke="none"/>
            <circle cx="5.202" cy="5.202" r="6.702" fill="none"/>
          </g>
          <g id="Rectangle-2" data-name="Rectangle" transform="translate(447.024 550.04) rotate(144)" fill="none" stroke="#5087f7" stroke-linejoin="round" stroke-miterlimit="10" stroke-width="3">
            <rect width="38.415" height="38.415" stroke="none"/>
            <rect x="-1.5" y="-1.5" width="41.415" height="41.415" fill="none"/>
          </g>
          <path id="Combined_Shape-2" data-name="Combined Shape" d="M19.208,19.208h0v0h0v0Z" transform="translate(128.043 254.954) rotate(97)" fill="none" stroke="#ad47bf" stroke-linecap="square" stroke-miterlimit="10" stroke-width="4"/>
          <path id="Combined_Shape-3" data-name="Combined Shape" d="M6.8,6.8,0,6.957,6.8,6.8v0l6.8-.155L6.8,6.8v0Z" transform="matrix(0.035, 0.999, -0.999, 0.035, 463.957, 445.617)" fill="none" stroke="#ad47bf" stroke-linecap="square" stroke-miterlimit="10" stroke-width="3"/>
        </g>
      </g>
      <g id="Group_8069" data-name="Group 8069" transform="translate(816.346 665.057) rotate(150)">
        <g id="Group_8067-2" data-name="Group 8067" transform="translate(0 0)">
          <g id="Rectangle-3" data-name="Rectangle" transform="translate(0 244.235) rotate(-25)" fill="none" stroke="#ad47bf" stroke-linecap="square" stroke-linejoin="round" stroke-miterlimit="10" stroke-width="3">
            <rect width="5.402" height="5.402" stroke="none"/>
            <rect x="-1.5" y="-1.5" width="8.402" height="8.402" fill="none"/>
          </g>
          <g id="Oval-4" data-name="Oval" transform="matrix(0.996, -0.087, 0.087, 0.996, 7.636, 90.497)" fill="none" stroke="#e6606c" stroke-linejoin="round" stroke-miterlimit="10" stroke-width="3">
            <circle cx="19.206" cy="19.206" r="19.206" stroke="none"/>
            <circle cx="19.206" cy="19.206" r="20.706" fill="none"/>
          </g>
          <g id="Oval-5" data-name="Oval" transform="matrix(0.996, -0.087, 0.087, 0.996, 49.785, 351.896)" fill="none" stroke="#e6606c" stroke-linejoin="round" stroke-miterlimit="10" stroke-width="3">
            <circle cx="3.901" cy="3.901" r="3.901" stroke="none"/>
            <circle cx="3.901" cy="3.901" r="5.401" fill="none"/>
          </g>
          <path id="Combined_Shape-4" data-name="Combined Shape" d="M14.4,14.4h0v0h0v0Z" transform="translate(283.943 11.717) rotate(-24)" fill="none" stroke="#ad47bf" stroke-linecap="square" stroke-miterlimit="10" stroke-width="4"/>
          <g id="Triangle-2" data-name="Triangle" transform="matrix(0.978, 0.208, -0.208, 0.978, 328.23, 153.909)" fill="none" stroke-linejoin="round" stroke-miterlimit="10">
            <path d="M14.773,0,29.545,23.278H0Z" stroke="none"/>
            <path d="M 14.77273845672607 3.814697265625e-06 L -5.7220458984375e-06 23.27824783325195 L 29.54547119140625 23.27824783325195 L 14.77273845672607 3.814697265625e-06 M 14.77273845672607 -2.999996185302734 C 15.79977226257324 -2.999996185302734 16.75541687011719 -2.474618911743164 17.30572700500488 -1.607473373413086 L 32.07846069335938 21.6707706451416 C 32.664794921875 22.59470367431641 32.70156097412109 23.76459312438965 32.17439270019531 24.72351455688477 C 31.647216796875 25.68243789672852 30.63974952697754 26.27824783325195 29.54547119140625 26.27824783325195 L -5.7220458984375e-06 26.27824783325195 C -1.094284057617188 26.27824783325195 -2.101751327514648 25.68243789672852 -2.628927230834961 24.72351455688477 C -3.156095504760742 23.76459312438965 -3.119329452514648 22.59470367431641 -2.532995223999023 21.6707706451416 L 12.23974990844727 -1.607473373413086 C 12.79006004333496 -2.474618911743164 13.7457160949707 -2.999996185302734 14.77273845672607 -2.999996185302734 Z" stroke="none" fill="#6357f6"/>
          </g>
          <g id="Oval-6" data-name="Oval" transform="matrix(0.996, -0.087, 0.087, 0.996, 314.593, 266.072)" fill="none" stroke="#e6606c" stroke-linejoin="round" stroke-miterlimit="10" stroke-width="3">
            <circle cx="3.901" cy="3.901" r="3.901" stroke="none"/>
            <circle cx="3.901" cy="3.901" r="5.401" fill="none"/>
          </g>
          <g id="Rectangle-4" data-name="Rectangle" transform="translate(335.235 412.49) rotate(144)" fill="none" stroke="#5087f7" stroke-linejoin="round" stroke-miterlimit="10" stroke-width="3">
            <rect width="28.809" height="28.809" stroke="none"/>
            <rect x="-1.5" y="-1.5" width="31.809" height="31.809" fill="none"/>
          </g>
          <path id="Combined_Shape-5" data-name="Combined Shape" d="M14.4,14.4h0v0h0v0Z" transform="translate(96.023 191.196) rotate(97)" fill="none" stroke="#ad47bf" stroke-linecap="square" stroke-miterlimit="10" stroke-width="4"/>
          <path id="Combined_Shape-6" data-name="Combined Shape" d="M5.1,5.1,0,5.217,5.1,5.1v0l5.1-.116L5.1,5.1v0Z" transform="matrix(0.035, 0.999, -0.999, 0.035, 347.934, 334.18)" fill="none" stroke="#ad47bf" stroke-linecap="square" stroke-miterlimit="10" stroke-width="3"/>
        </g>
      </g>
    </g>
  </g>
</svg>
