<svg id="Group_8212" data-name="Group 8212" xmlns="http://www.w3.org/2000/svg" xmlns:xlink="http://www.w3.org/1999/xlink" width="98.958" height="98.991" viewBox="0 0 98.958 98.991">
  <defs>
    <clipPath id="clip-path">
      <rect id="Rectangle_3889" data-name="Rectangle 3889" width="98.958" height="98.991" fill="#fff"/>
    </clipPath>
  </defs>
  <g id="Group_7637" data-name="Group 7637" clip-path="url(#clip-path)">
    <path id="Path_10348" data-name="Path 10348" d="M98.959,52.4a29.1,29.1,0,0,1-2.04,3.766Q86.636,70.011,76.251,83.777c-1.879,2.5-4.5,3.373-7.114,2.192a6.735,6.735,0,0,1-2.449-1.951C63.573,80,60.527,75.92,57.51,71.824a5.692,5.692,0,0,1,7.157-8.568,7.726,7.726,0,0,1,2.129,1.91c1.544,1.933,2.991,3.944,4.538,6.007.263-.323.484-.578.686-.847,3.923-5.229,7.856-10.45,11.742-15.706a3.3,3.3,0,0,0,.6-1.833q.049-23.1.025-46.2c0-2.591-.883-3.463-3.492-3.463H15.864c-2.433,0-3.341.894-3.343,3.3,0,4.381,0,8.762-.007,13.144a4.4,4.4,0,0,1-.141,1.238,1.39,1.39,0,0,1-1.537,1.051A1.39,1.39,0,0,1,9.471,20.7a5.386,5.386,0,0,1-.093-1.151q-.011-4.494,0-8.988V9.48c-1.484,0-2.862-.086-4.224.028a2.4,2.4,0,0,0-2,2.2,6.955,6.955,0,0,0-.034.964q0,36.821.006,73.643A5.4,5.4,0,0,0,3.3,87.833a2.167,2.167,0,0,0,1.919,1.679c1.334.1,2.682.025,4.157.025V88.183q0-30.25,0-60.5a9.614,9.614,0,0,1,.071-1.347,1.394,1.394,0,0,1,1.455-1.28,1.389,1.389,0,0,1,1.513,1.209,7.39,7.39,0,0,1,.1,1.341q.007,32.28,0,64.559c0,.387-.009.774.013,1.159a2.572,2.572,0,0,0,2.43,2.536,8.665,8.665,0,0,0,.869.018q32.612,0,65.224-.006a5.462,5.462,0,0,0,1.523-.171c1.219-.358,1.8-1.342,1.805-2.963q.011-7.539,0-15.077c0-.29-.009-.581.006-.87.058-1.08.648-1.749,1.538-1.754A1.617,1.617,0,0,1,87.5,76.777c.041,1.545.013,3.092.013,4.639q0,5.17,0,10.341c0,4.3-.9,5.664-4.795,7.235H14.11c-.234-.1-.464-.2-.7-.283A5.6,5.6,0,0,1,9.565,94.6a16.463,16.463,0,0,1-.273-1.845c-.483,0-.9,0-1.313,0-.837-.011-1.68.035-2.509-.051A5.69,5.69,0,0,1,.005,86.645Q-.005,49.487,0,12.33c0-.225,0-.451.022-.676a5.579,5.579,0,0,1,5.1-5.288c1.366-.13,2.755-.023,4.134-.023a5.8,5.8,0,0,0,.152-.825A5.83,5.83,0,0,1,15.536,0q32.9.05,65.8.027a7.546,7.546,0,0,1,2,.244c2.657.741,4.177,2.984,4.178,6.109q.006,20.922,0,41.844v1.105a5.484,5.484,0,0,0,1.113-1.148,5.724,5.724,0,0,1,7.926-1.24,6.707,6.707,0,0,1,2.4,3.722ZM71.177,83.574l.159-.233a3.035,3.035,0,0,0,2.51-1.549Q81.712,71.28,89.6,60.781c1.873-2.5,3.768-4.977,5.61-7.5A2.6,2.6,0,0,0,93.449,49a2.891,2.891,0,0,0-2.644,1.466Q81.931,62.336,73.029,74.184c-1.182,1.575-2.161,1.576-3.337.012-1.837-2.444-3.655-4.9-5.508-7.333a2.634,2.634,0,0,0-3.818-.636,2.59,2.59,0,0,0-.371,3.707C63.046,74.04,66.1,78.145,69.222,82.2a8.072,8.072,0,0,0,1.955,1.375" transform="translate(0 0)" fill="#fff"/>
    <path id="Path_10349" data-name="Path 10349" d="M123.643,80.648q-11.06,0-22.12,0a6.816,6.816,0,0,1-1.06-.033,1.528,1.528,0,0,1-.115-3.017,4.585,4.585,0,0,1,1.056-.062q22.168,0,44.336,0a4.268,4.268,0,0,1,1.055.068,1.53,1.53,0,0,1-.164,3.015,7.664,7.664,0,0,1-1.061.029H123.643" transform="translate(-75.121 -58.765)" fill="#fff"/>
    <path id="Path_10350" data-name="Path 10350" d="M117.412,163.686q7.874,0,15.748,0a6.7,6.7,0,0,1,.964.032,1.526,1.526,0,0,1,.187,2.992,4.524,4.524,0,0,1-1.149.085q-15.893.006-31.785,0h-.29c-1.293-.016-2.027-.582-2.028-1.564s.714-1.545,2.026-1.546q8.164-.007,16.327,0" transform="translate(-75.081 -124.063)" fill="#fff"/>
    <path id="Path_10351" data-name="Path 10351" d="M117.269,201.192q-7.922,0-15.844,0a5.011,5.011,0,0,1-1.058-.05,1.53,1.53,0,0,1-.022-3.006,3.668,3.668,0,0,1,.865-.052q16.085,0,32.171,0a3.91,3.91,0,0,1,.865.047,1.533,1.533,0,0,1,.021,3.008,4.818,4.818,0,0,1-1.058.054q-7.97,0-15.94,0" transform="translate(-75.119 -150.132)" fill="#fff"/>
    <path id="Path_10352" data-name="Path 10352" d="M112.083,292.7q5.309,0,10.617,0a6.162,6.162,0,0,1,1.149.094,1.51,1.51,0,0,1,.07,2.931,4.944,4.944,0,0,1-1.144.118q-10.714.01-21.427,0c-.161,0-.322.006-.483,0-1.123-.065-1.829-.681-1.823-1.587s.7-1.543,1.845-1.55c3.732-.023,7.464-.009,11.2-.009Z" transform="translate(-75.068 -221.847)" fill="#fff"/>
    <path id="Path_10353" data-name="Path 10353" d="M159.316,115.044q-5.308,0-10.616,0a6.343,6.343,0,0,1-.963-.041,1.421,1.421,0,0,1-1.277-1.363,1.393,1.393,0,0,1,1.012-1.564,4.1,4.1,0,0,1,1.234-.142q10.713-.012,21.426-.006c.1,0,.193,0,.29,0,1.28.019,2.025.6,2.023,1.576s-.713,1.536-2.029,1.539q-5.549.01-11.1,0" transform="translate(-111.001 -84.833)" fill="#fff"/>
    <path id="Path_10354" data-name="Path 10354" d="M104.744,330.331c-1.254,0-2.508.016-3.761,0-1.2-.019-1.928-.629-1.931-1.571s.7-1.544,1.924-1.552q3.809-.024,7.618,0c1.185.008,1.84.562,1.867,1.5.028.977-.659,1.6-1.859,1.624-1.285.026-2.572.006-3.857.006" transform="translate(-75.075 -247.992)" fill="#fff"/>
    <path id="Path_10355" data-name="Path 10355" d="M282.469,163.718a9.014,9.014,0,0,1,1.15.008,1.415,1.415,0,0,1,1.346,1.384,1.365,1.365,0,0,1-1.183,1.606,10.575,10.575,0,0,1-2.673.022,1.426,1.426,0,0,1-1.275-1.556,1.5,1.5,0,0,1,1.485-1.47c.381-.031.767-.005,1.151-.005v.011" transform="translate(-212.096 -124.072)" fill="#fff"/>
    <path id="Path_10356" data-name="Path 10356" d="M282.379,201.122a9.846,9.846,0,0,1-1.15-.008,1.512,1.512,0,0,1-1.4-1.553,1.45,1.45,0,0,1,1.355-1.49,13.58,13.58,0,0,1,2.4-.01,1.476,1.476,0,0,1,1.393,1.549,1.5,1.5,0,0,1-1.442,1.511,11.192,11.192,0,0,1-1.151.007v-.006" transform="translate(-212.09 -150.082)" fill="#fff"/>
  </g>
</svg>
