<svg xmlns="http://www.w3.org/2000/svg" width="58.712" height="58.746" viewBox="0 0 58.712 58.746">
  <path id="Path_10295" data-name="Path 10295" d="M47.008,8.475A5.908,5.908,0,0,1,45.176,11.2Q29.1,27.261,13.042,43.345a2.9,2.9,0,0,1-1.362.774C8.221,45.049,4.767,46,1.313,46.945a1.279,1.279,0,0,0-.227.113H.443a.949.949,0,0,1-.379-1.186c1-3.63,1.978-7.267,2.979-10.9a1.739,1.739,0,0,1,.433-.731Q19.984,17.711,36.508,1.195A3.644,3.644,0,0,1,41.9,1.187c1.315,1.3,2.609,2.627,3.932,3.922a4.686,4.686,0,0,1,1.178,2.081ZM34.516,10.484c-.062.056-.133.113-.2.177q-12.7,12.7-25.388,25.4a.613.613,0,0,0-.212.331c-.02.637-.01,1.275-.01,1.946.554,0,1.057-.018,1.558.006a1.022,1.022,0,0,0,.84-.34Q23.662,25.422,36.231,12.859c.117-.117.229-.239.322-.337l-2.037-2.037M12.473,41.6,39.041,15.022l-1.508-1.5a3.018,3.018,0,0,1-.322.458Q24.8,26.407,12.377,38.826a1.551,1.551,0,0,0-.284.3.715.715,0,0,0-.126.435c.158.713.349,1.419.506,2.039m-7.1-7.048c.631.157,1.286.3,1.925.49a.658.658,0,0,0,.757-.2Q20.592,22.274,33.143,9.727c.106-.106.205-.219.285-.306L31.962,7.955,5.372,34.549M42.353,11.906c.841-.842,1.679-1.668,2.5-2.509a2.14,2.14,0,0,0-.013-3.152q-2-2.027-4.025-4.027a2.2,2.2,0,0,0-3.233.009c-.752.742-1.495,1.492-2.239,2.241a2.76,2.76,0,0,0-.193.233l7.2,7.205m-38,23.931c-.385,1.4-.766,2.764-1.124,4.134a.406.406,0,0,0,.2.325,6.755,6.755,0,0,1,3.3,3.313c.112.24.24.251.468.18.553-.171,1.115-.313,1.674-.466l2.337-.638c-.223-.882-.446-1.7-.633-2.536-.06-.267-.169-.347-.429-.342-.688.014-1.377.011-2.065,0-.59-.008-.838-.256-.845-.838-.008-.688.008-1.377-.011-2.065,0-.136-.095-.363-.19-.39-.878-.244-1.766-.453-2.676-.679M33.075,6.745l7.186,7.178.879-.857L33.952,5.879l-.877.866M1.783,45.262l3.6-.983a4.972,4.972,0,0,0-2.621-2.61l-.979,3.594" transform="translate(0 13.744) rotate(-17)" fill="#fff"/>
</svg>
